<svg width="120" height="54" viewBox="0 0 120 54" fill="none" xmlns="http://www.w3.org/2000/svg">
<g filter="url(#filter0_d_0_68)">
<path d="M26.9545 16L30.1496 23.5896L38 24.4542L32.066 29.9302L33.801 38L26.9545 33.7728L20.199 38L21.934 29.9302L16 24.4542L23.8504 23.5896L26.9545 16Z" fill="#FFB240"/>
</g>
<g filter="url(#filter1_d_0_68)">
<path d="M59.9545 16L63.1496 23.5896L71 24.4542L65.066 29.9302L66.801 38L59.9545 33.7728L53.199 38L54.934 29.9302L49 24.4542L56.8504 23.5896L59.9545 16Z" fill="#FFB240"/>
</g>
<g filter="url(#filter2_d_0_68)">
<path d="M92.9545 16L96.1496 23.5896L104 24.4542L98.066 29.9302L99.801 38L92.9545 33.7728L86.199 38L87.934 29.9302L82 24.4542L89.8504 23.5896L92.9545 16Z" fill="#FFB240"/>
</g>
<defs>
<filter id="filter0_d_0_68" x="0" y="0" width="54" height="54" filterUnits="userSpaceOnUse" color-interpolation-filters="sRGB">
<feFlood flood-opacity="0" result="BackgroundImageFix"/>
<feColorMatrix in="SourceAlpha" type="matrix" values="0 0 0 0 0 0 0 0 0 0 0 0 0 0 0 0 0 0 127 0" result="hardAlpha"/>
<feOffset/>
<feGaussianBlur stdDeviation="8"/>
<feColorMatrix type="matrix" values="0 0 0 0 1 0 0 0 0 0.698039 0 0 0 0 0.25098 0 0 0 0.544186 0"/>
<feBlend mode="normal" in2="BackgroundImageFix" result="effect1_dropShadow_0_68"/>
<feBlend mode="normal" in="SourceGraphic" in2="effect1_dropShadow_0_68" result="shape"/>
</filter>
<filter id="filter1_d_0_68" x="33" y="0" width="54" height="54" filterUnits="userSpaceOnUse" color-interpolation-filters="sRGB">
<feFlood flood-opacity="0" result="BackgroundImageFix"/>
<feColorMatrix in="SourceAlpha" type="matrix" values="0 0 0 0 0 0 0 0 0 0 0 0 0 0 0 0 0 0 127 0" result="hardAlpha"/>
<feOffset/>
<feGaussianBlur stdDeviation="8"/>
<feColorMatrix type="matrix" values="0 0 0 0 1 0 0 0 0 0.698039 0 0 0 0 0.25098 0 0 0 0.544186 0"/>
<feBlend mode="normal" in2="BackgroundImageFix" result="effect1_dropShadow_0_68"/>
<feBlend mode="normal" in="SourceGraphic" in2="effect1_dropShadow_0_68" result="shape"/>
</filter>
<filter id="filter2_d_0_68" x="66" y="0" width="54" height="54" filterUnits="userSpaceOnUse" color-interpolation-filters="sRGB">
<feFlood flood-opacity="0" result="BackgroundImageFix"/>
<feColorMatrix in="SourceAlpha" type="matrix" values="0 0 0 0 0 0 0 0 0 0 0 0 0 0 0 0 0 0 127 0" result="hardAlpha"/>
<feOffset/>
<feGaussianBlur stdDeviation="8"/>
<feColorMatrix type="matrix" values="0 0 0 0 1 0 0 0 0 0.698039 0 0 0 0 0.25098 0 0 0 0.544186 0"/>
<feBlend mode="normal" in2="BackgroundImageFix" result="effect1_dropShadow_0_68"/>
<feBlend mode="normal" in="SourceGraphic" in2="effect1_dropShadow_0_68" result="shape"/>
</filter>
</defs>
</svg>
