<svg width="153" height="54" fill="none" xmlns="http://www.w3.org/2000/svg"><g filter="url(#filter0_d_0_68)"><path d="M26.954 16l3.196 7.59 7.85.864-5.934 5.476L33.801 38l-6.847-4.227L20.2 38l1.735-8.07L16 24.454l7.85-.864L26.954 16z" fill="#4AF6CD"/></g><g filter="url(#filter1_d_0_68)"><path d="M59.955 16l3.195 7.59 7.85.864-5.934 5.476L66.801 38l-6.846-4.227L53.199 38l1.735-8.07L49 24.454l7.85-.864L59.955 16z" fill="#4AF6CD"/></g><g filter="url(#filter2_d_0_68)"><path d="M92.954 16l3.196 7.59 7.85.864-5.934 5.476L99.801 38l-6.847-4.227L86.2 38l1.735-8.07L82 24.454l7.85-.864L92.955 16z" fill="#4AF6CD"/></g><g filter="url(#filter3_d_0_68)"><path d="M125.955 16l3.195 7.59 7.85.864-5.934 5.476 1.735 8.07-6.847-4.227L119.199 38l1.735-8.07L115 24.454l7.85-.864 3.105-7.59z" fill="#4AF6CD"/></g><defs><filter id="filter0_d_0_68" x="0" y="0" width="54" height="54" filterUnits="userSpaceOnUse" color-interpolation-filters="sRGB"><feFlood flood-opacity="0" result="BackgroundImageFix"/><feColorMatrix in="SourceAlpha" values="0 0 0 0 0 0 0 0 0 0 0 0 0 0 0 0 0 0 127 0" result="hardAlpha"/><feOffset/><feGaussianBlur stdDeviation="8"/><feColorMatrix values="0 0 0 0 0.289399 0 0 0 0 0.964817 0 0 0 0 0.803534 0 0 0 0.544186 0"/><feBlend in2="BackgroundImageFix" result="effect1_dropShadow_0_68"/><feBlend in="SourceGraphic" in2="effect1_dropShadow_0_68" result="shape"/></filter><filter id="filter1_d_0_68" x="33" y="0" width="54" height="54" filterUnits="userSpaceOnUse" color-interpolation-filters="sRGB"><feFlood flood-opacity="0" result="BackgroundImageFix"/><feColorMatrix in="SourceAlpha" values="0 0 0 0 0 0 0 0 0 0 0 0 0 0 0 0 0 0 127 0" result="hardAlpha"/><feOffset/><feGaussianBlur stdDeviation="8"/><feColorMatrix values="0 0 0 0 0.289399 0 0 0 0 0.964817 0 0 0 0 0.803534 0 0 0 0.544186 0"/><feBlend in2="BackgroundImageFix" result="effect1_dropShadow_0_68"/><feBlend in="SourceGraphic" in2="effect1_dropShadow_0_68" result="shape"/></filter><filter id="filter2_d_0_68" x="66" y="0" width="54" height="54" filterUnits="userSpaceOnUse" color-interpolation-filters="sRGB"><feFlood flood-opacity="0" result="BackgroundImageFix"/><feColorMatrix in="SourceAlpha" values="0 0 0 0 0 0 0 0 0 0 0 0 0 0 0 0 0 0 127 0" result="hardAlpha"/><feOffset/><feGaussianBlur stdDeviation="8"/><feColorMatrix values="0 0 0 0 0.289399 0 0 0 0 0.964817 0 0 0 0 0.803534 0 0 0 0.544186 0"/><feBlend in2="BackgroundImageFix" result="effect1_dropShadow_0_68"/><feBlend in="SourceGraphic" in2="effect1_dropShadow_0_68" result="shape"/></filter><filter id="filter3_d_0_68" x="99" y="0" width="54" height="54" filterUnits="userSpaceOnUse" color-interpolation-filters="sRGB"><feFlood flood-opacity="0" result="BackgroundImageFix"/><feColorMatrix in="SourceAlpha" values="0 0 0 0 0 0 0 0 0 0 0 0 0 0 0 0 0 0 127 0" result="hardAlpha"/><feOffset/><feGaussianBlur stdDeviation="8"/><feColorMatrix values="0 0 0 0 0.289399 0 0 0 0 0.964817 0 0 0 0 0.803534 0 0 0 0.544186 0"/><feBlend in2="BackgroundImageFix" result="effect1_dropShadow_0_68"/><feBlend in="SourceGraphic" in2="effect1_dropShadow_0_68" result="shape"/></filter></defs></svg>