<svg width="149" height="350" fill="none" xmlns="http://www.w3.org/2000/svg"><g opacity=".03" fill="#fff"><path fill-rule="evenodd" clip-rule="evenodd" d="M147.191.034c33.416 0 65.86 11.274 91.44 31.75v-.002c33.416 26.73 53.07 64.736 55.447 106.991 2.277 41.717-13.326 82.533-42.79 111.975l-97.671 96.318c-3.784 3.747-10.346 3.714-14.13-.033l-96.291-96.216C13.665 221.309-1.971 180.46.339 138.773 2.682 96.52 22.37 58.514 55.752 31.783 81.299 11.308 113.776.033 147.19.033zM81.567 146.908c0 36.165 29.43 65.573 65.624 65.573 36.194 0 65.659-29.407 65.625-65.573 0-36.165-29.43-65.573-65.625-65.573-36.193 0-65.624 29.407-65.624 65.573z"/><path d="M147.191 114.946c-17.645 0-31.975 14.32-31.975 31.951s14.33 31.951 31.975 31.951c17.646 0 31.976-14.32 31.976-31.951s-14.33-31.951-31.976-31.951z"/></g></svg>